<?xml version="1.0" encoding="UTF-8" standalone="no"?>
<svg stroke="currentColor" stroke-width="0" fill="currentColor" role="img" viewbox="0 0 40 40" xmlns="http://www.w3.org/2000/svg">
    <title></title>
    <path d="m 30.801429,28.659286 c 0,-1.181429 -0.961429,-2.142858 -2.142858,-2.142858 -1.181428,0 -2.142857,0.961429 -2.142857,2.142858 0,1.181428 0.961429,2.142857 2.142857,2.142857 1.181429,0 2.142858,-0.961429 2.142858,-2.142857 z m 1.428571,0 c 0,1.969285 -1.602143,3.571428 -3.571429,3.571428 -1.969285,0 -3.571428,-1.602143 -3.571428,-3.571428 0,-1.969286 1.602143,-3.571429 3.571428,-3.571429 1.969286,0 3.571429,1.602143 3.571429,3.571429 z M 13.137143,18.351429 c 0,-1.181429 -0.961429,-2.142858 -2.142857,-2.142858 -1.1821432,0 -2.1428575,0.961429 -2.1428575,2.142858 0,1.181428 0.9607143,2.142857 2.1428575,2.142857 1.181428,0 2.142857,-0.961429 2.142857,-2.142857 z m 1.42857,0 c 0,1.969285 -1.602856,3.571428 -3.571427,3.571428 -1.9692861,0 -3.571429,-1.602143 -3.571429,-3.571428 0,-1.969286 1.6021429,-3.571429 3.571429,-3.571429 1.968571,0 3.571427,1.602143 3.571427,3.571429 z M 19.807142,7.147857 c 0,1.1814286 0.961429,2.1428572 2.142857,2.1428572 1.182143,0 2.142858,-0.9614286 2.142858,-2.1428572 0,-1.1821428 -0.960715,-2.1428571 -2.142858,-2.1428571 -1.181428,0 -2.142857,0.9607143 -2.142857,2.1428571 z m -1.428571,0 c 0,-1.9692856 1.602857,-3.5714284 3.571428,-3.5714284 1.969286,0 3.571429,1.6021428 3.571429,3.5714284 0,1.9692857 -1.602143,3.571429 -3.571429,3.571429 -1.968571,0 -3.571428,-1.6021433 -3.571428,-3.571429 z M 38.571429,19.999999 C 38.571429,13.376429 35.02,7.2485713 29.294286,3.935 28.267856,4.1421428 27.275,4.4257142 26.036428,4.8735713 L 25.550714,3.53 c 0.646429,-0.2328571 1.225,-0.4214287 1.782142,-0.5828571 -2.3,-0.9921429 -4.79857,-1.5185716 -7.332857,-1.5185716 -1.206429,0 -2.39357,0.1250004 -3.553571,0.3514287 0.84,0.4914286 1.585001,0.9814286 2.308572,1.5299999 l -0.863571,1.1378572 c -1.02,-0.7728572 -2.077143,-1.4278571 -3.465,-2.155 C 7.4128569,4.4985714 2.3614285,10.684286 1.5592857,17.948571 3.0299999,17.650714 4.4421428,17.48857 6.0099998,17.45 l 0.035,1.427857 c -1.6428569,0.04071 -3.0542855,0.215 -4.5971428,0.554286 -0.00643,0.189285 -0.019286,0.380714 -0.019286,0.567856 0,6.184286 3.0592857,11.882857 8.0907143,15.319286 -0.895,-2.664999 -1.3407143,-5.183571 -1.3407143,-7.643572 0,-1.402857 0.2414286,-2.555 0.4964286,-3.774285 0.059286,-0.282142 0.1192856,-0.569286 0.177857,-0.867143 L 10.255,23.310714 c -0.06,0.302856 -0.121429,0.596429 -0.181429,0.884286 -0.2499998,1.194285 -0.4664283,2.225714 -0.4664283,3.480713 0,2.79143 0.6128573,5.677857 1.8600003,8.812143 2.656428,1.379286 5.525,2.083573 8.532856,2.083573 1.968571,0 3.890001,-0.314286 5.722857,-0.918572 0.719287,-1.419287 1.252857,-2.758572 1.698573,-4.296428 l 1.372141,0.397856 c -0.325713,1.121428 -0.699285,2.140715 -1.144284,3.157857 1.152856,-0.518571 2.243571,-1.16 3.267143,-1.908571 C 30.67,34.399286 30.405713,33.79857 30.113571,33.21357 l 1.277857,-0.639285 c 0.248572,0.497143 0.476429,1.005714 0.694285,1.517144 4.132144,-3.537859 6.485716,-8.62 6.485716,-14.09143 z m 1.428571,0 c 0,6.233572 -2.832858,11.999287 -7.770714,15.820714 -1.222858,0.950001 -2.549286,1.738572 -3.95143,2.373573 -0.595,0.269999 -1.200714,0.519999 -1.82357,0.729999 C 24.397143,39.637856 22.22357,40 19.999999,40 16.714286,40 13.451429,39.181428 10.562857,37.632856 4.047857,34.147142 0,27.390714 0,19.999999 0,19.509999 0.01285714,19.137143 0.04214286,18.792142 0.52857142,10.446429 6.2542856,3.2228571 14.286429,0.83285713 16.115713,0.28071429 18.039285,0 19.999999,0 23.434286,0 26.813571,0.8842857 29.774285,2.5564285 36.080714,6.0892856 40,12.774286 40,19.999999 Z M 18.081428,9.6164285 17.142857,8.5399999 c -1.601428,1.3971428 -2.847144,2.8807141 -4.302143,5.1214291 l 1.198571,0.777857 C 15.416429,12.317143 16.587856,10.92 18.081428,9.6164285 Z m -2.170714,9.2600005 -0.464285,1.350713 c 3.280714,1.126429 6.142857,2.923571 9.006427,5.655715 l 0.98643,-1.033571 c -3.018572,-2.879287 -6.046429,-4.777143 -9.528572,-5.972857 z m 9.550715,-8.399286 c 2.68,4.087142 4.189284,8.573571 4.484999,13.335714 l -1.425714,0.08856 C 28.24,19.39 26.809286,15.137143 24.267857,11.260714 Z" />
</svg>
