<?xml version="1.0" encoding="UTF-8" standalone="no"?>
<svg stroke="currentColor" stroke-width="0" fill="currentColor" role="img" viewBox="0 0 46 40" xmlns="http://www.w3.org/2000/svg">
    <title></title>
    <path d="M 10.4151 20.8696 L 13.0189 20.8696 L 13.0189 19.1304 L 10.4151 19.1304 Z M 5.20755 20.8696 L 7.81135 20.8696 L 7.81135 19.1304 L 5.20755 19.1304 Z M 1.9e-06 20.8696 L 2.60376 20.8696 L 2.60376 19.1304 L 1.9e-06 19.1304 Z M 34.3933 26.4452 L 36.4034 25.7739 L 34.3933 25.1026 L 33.7232 23.0896 L 33.0541 25.1026 L 31.0448 25.7739 L 33.0541 26.4452 L 33.7232 28.4583 Z M 14.6697 28.8156 L 13.9997 30.8296 L 11.9895 31.5009 L 13.9997 32.1713 L 14.6697 34.1852 L 15.3397 32.1713 L 17.349 31.5009 L 15.3397 30.8296 Z M 14.6697 7.18086 L 13.9997 9.19393 L 11.9895 9.86521 L 13.9997 10.5365 L 14.6697 12.5504 L 15.3397 10.5365 L 17.349 9.86521 L 15.3397 9.19393 Z M 17.8671 19.9417 C 21.0533 22.0331 23.2925 26.1139 24.2151 31.5235 C 25.9908 29.1913 28.8203 24.7244 28.8203 19.9417 C 28.8203 15.1817 26.3198 10.9974 24.2212 8.32436 C 23.3029 13.7513 21.0593 17.8452 17.8671 19.9417 Z M 15.6999 20.7409 C 15.3814 20.6035 15.1739 20.2896 15.1739 19.9417 C 15.1739 19.5939 15.3814 19.2791 15.6999 19.1426 C 19.4927 17.5131 22.0678 12.7869 22.7639 6.17739 C 22.7995 5.83652 23.0322 5.54783 23.3576 5.44174 C 23.6822 5.33479 24.0407 5.43131 24.2707 5.68609 C 26.6184 8.28957 30.5562 13.6035 30.5562 19.9417 C 30.5562 26.6748 25.7452 32.5496 24.2707 34.1896 C 24.1031 34.3756 23.8671 34.4765 23.6258 34.4765 C 23.5355 34.4765 23.4462 34.4626 23.3576 34.4348 C 23.0312 34.3287 22.7987 34.04 22.7631 33.6983 C 22.0661 27.0931 19.4918 22.3696 15.6999 20.7409 Z M 40.7925 20 C 40.7925 31.0279 31.8381 40 20.8302 40 C 10.8951 40 2.39202 32.5739 1.05193 22.7261 L 2.77216 22.4913 C 3.99591 31.4817 11.7587 38.2609 20.8302 38.2609 C 30.8799 38.2609 39.0567 30.0696 39.0567 20 C 39.0567 9.93043 30.8799 1.73913 20.8302 1.73913 C 12.0303 1.73913 4.49148 8.02264 2.90405 16.6791 L 1.19687 16.3644 C 2.9362 6.88261 11.1927 0 20.8302 0 C 31.8381 0 40.7925 8.97214 40.7925 20 Z" />
</svg>
